<?xml version="1.0" encoding="UTF-8" standalone="no"?>
<svg
   xmlns:dc="http://purl.org/dc/elements/1.1/"
   xmlns:cc="http://creativecommons.org/ns#"
   xmlns:rdf="http://www.w3.org/1999/02/22-rdf-syntax-ns#"
   xmlns:svg="http://www.w3.org/2000/svg"
   xmlns="http://www.w3.org/2000/svg"
   width="40"
   height="270"
   viewBox="0 0 40 270"
   preserveAspectRatio="none"
   id="svg2"
   version="1.1">
  <defs
     id="defs4" />
  <metadata
     id="metadata7">
    <rdf:RDF>
      <cc:Work
         rdf:about="">
        <dc:format>image/svg+xml</dc:format>
        <dc:type
           rdf:resource="http://purl.org/dc/dcmitype/StillImage" />
        <dc:title></dc:title>
      </cc:Work>
    </rdf:RDF>
  </metadata>
  <g
     id="layer1"
     transform="translate(0,-782.36216)">
    <path
       style="fill:#deaa87;fill-rule:evenodd;stroke:#000000;stroke-width:5;stroke-linecap:round;stroke-linejoin:miter;stroke-miterlimit:4;stroke-dasharray:none;stroke-opacity:1"
       d="m 35.362812,967.48764 c 6.12826,1.9489 15.08859,5.35491 15.42421,11.58785 0.7383,13.71144 6.667817,39.08981 -0.426393,46.89341 -3.57143,3.9286 -3.325991,11.9438 2.506059,13.4987 5.71221,1.5231 5.918414,4.6147 13.512064,-4.8406 8.41908,-10.4831 14.68871,-27.31 16.07143,-43.63274 0.93106,-10.99096 -0.83096,-15.13421 4.26033,-19.31108 2.37237,-1.94628 18.234418,-4.89481 21.314298,2.90322 6.70628,16.97977 2.09005,47.3651 -1.86143,58.8571 -1.99796,5.8106 -10.655668,10.3695 -5.97426,15.2959 4.09139,4.3055 21.5301,1.2552 27.07107,-2.2295 8.40004,-5.2829 10.36766,-22.6839 13.2248,-42.6839 2.85715,-19.99997 10.6416,-55.72096 7.06055,-84.35003 -1.75843,-14.05798 -6.84217,-26.2672 -14.68116,-35.53185 40.96383,-10.0216 64.49478,-33.23461 67.67258,-67.98405 3.1778,-34.74944 -14.81496,-12.2331 -32.69447,15.76086 -18.1576,28.42937 -39.48197,42.91829 -42.51963,44.90056 -7.00104,-5.55469 -15.43938,-9.29748 -25.07924,-10.77513 -22.743058,-3.48617 -40.253888,2.70005 -64.022448,10.54753 -5.1122,1.68786 -26.6095304,3.45768 -38.0122004,-2.11208 -16.1155996,-7.87184 -27.6259296,-20.72068 -35.3799796,-40.53841 -6.0313,-15.41474 -18.71464,-35.72362 -43.45385,-44.38977 -26.483342,-9.27713 -53.185992,5.22509 -66.613052,15.72296 -7.6118,5.95125 -34.79141,7.50752 -53.70142,7.76178 -20.85299,0.28039 -15.02865,18.4741 -11.96954,28.2248 5.83526,18.59948 35.26363,29.19981 49.49492,31.14757 31.89187,4.00906 43.34144,20.5869 52.85279,40.36766 6.48391,13.48458 9.40827,38.75961 10.4797,54.83104 1.333782,20.00655 0.308492,49.69636 -6.78572,57.49996 -3.57143,3.9286 -9.04633,13.0879 -3.21428,14.6429 5.71221,1.523 18.503162,3.4705 26.096812,-5.9848 8.41908,-10.4831 14.68871,-27.31 16.07143,-43.63269 0.93106,-10.99096 -0.83096,-15.13421 4.26033,-19.31108 2.37237,-1.94628 18.23442,-4.89481 21.3143,2.90322 6.70628,16.97977 2.09005,47.36515 -1.86143,58.85715 -1.99796,5.8106 -10.65567,10.3694 -5.97426,15.2958 4.09139,4.3055 21.5301,1.2553 27.07107,-2.2295 8.40004,-5.2829 10.36766,-22.6838 13.2247996,-42.6838 2.85715,-20.00002 -1.5949796,-26.74476 7.37309,-34.19907 9.71113,-8.07195 25.8341704,-4.90691 37.8681304,-1.07989 z"
       id="path4138-3" />
    <g
       id="g4159"
       transform="translate(-313.93389,379.77675)">
      <circle
         r="5.3571429"
         cy="447.04095"
         cx="173.11276"
         id="path4140"
         style="opacity:0.98000004;fill:#000000;fill-opacity:1;stroke:none;stroke-width:3;stroke-linecap:round;stroke-linejoin:round;stroke-miterlimit:4;stroke-dasharray:none;stroke-dashoffset:0;stroke-opacity:1" />
      <path
         id="path4142"
         d="m 204.22008,428.01086 c -11.42857,25 -18.57143,62.85714 13.57143,67.85714 32.14286,5 21.42857,-47.85714 10.71429,-65"
         style="fill:none;fill-rule:evenodd;stroke:#000000;stroke-width:5;stroke-linecap:round;stroke-linejoin:miter;stroke-miterlimit:4;stroke-dasharray:none;stroke-opacity:1" />
    </g>
  </g>
</svg>
